<!DOCTYPE svg PUBLIC "-//W3C//DTD SVG 1.1//EN" "http://www.w3.org/Graphics/SVG/1.1/DTD/svg11.dtd">

<svg version="1.1" id="Contours" xmlns="http://www.w3.org/2000/svg" xmlns:xlink="http://www.w3.org/1999/xlink" x="0px" y="0px" width="1648.394287px" height="1648.394287px" viewBox="0.000006 0.000002 1648.394287 972.851440" enable-background="new 0 0 1648.394287 1648.394287" xml:space="preserve" stroke="black" fill="none" stroke-linecap='round' stroke-linejoin='round'>
<path class="selected"  fill="#000000" opacity="1.000000" stroke="none" 
 	d="
M1258.153513 436.656949 C1249.772165 446.704984 1241.596628 456.466886 1233.524851 466.313749 C1228.139963 472.883146 1222.926096 479.592313 1217.594675 486.205900 C1209.129587 496.706754 1200.665964 507.209073 1192.133738 517.655363 C1185.711252 525.518583 1179.115793 533.240751 1172.716379 541.122281 C1163.110910 552.952421 1153.692087 564.934781 1144.037058 576.724027 C1136.868723 585.476957 1129.318308 593.917570 1122.178415 602.692899 C1113.084177 613.870267 1104.372507 625.360258 1095.223337 636.491117 C1089.735300 643.167875 1083.693918 649.387845 1077.997385 655.897245 C1077.340525 656.647733 1077.301340 657.938749 1076.975779 658.979154 C1078.042917 658.955106 1079.278391 659.278470 1080.152048 658.855131 C1095.701731 651.319852 1111.148264 643.569852 1126.737497 636.118314 C1147.459299 626.213285 1168.327951 616.615873 1189.046701 606.704740 C1198.657175 602.107450 1208.060617 597.077848 1217.563303 592.255094 C1218.524241 591.767423 1219.534006 590.968534 1220.501902 590.995695 C1222.021555 591.038358 1223.524973 591.661344 1225.035349 592.038602 C1224.122507 592.863553 1223.265085 593.761503 1222.288645 594.502531 C1205.808542 607.009305 1189.296701 619.474515 1172.827829 631.996122 C1161.410349 640.677030 1149.960398 649.318876 1138.685373 658.182401 C1128.082712 666.517362 1117.738474 675.180204 1107.188913 683.584135 C1099.952097 689.349271 1092.537058 694.890165 1085.241159 700.581693 C1075.912180 707.859281 1066.627512 715.193754 1057.313547 722.490385 C1054.425852 724.752592 1051.457956 726.915800 1048.637278 729.257352 C1048.048899 729.745634 1047.947702 730.820707 1047.622019 731.625394 C1048.406565 731.695219 1049.227976 731.953031 1049.970041 731.807035 C1063.215769 729.202665 1076.449656 726.538480 1089.690744 723.910306 C1099.858225 721.892484 1110.002634 719.736967 1120.211130 717.950590 C1132.683664 715.767728 1145.237742 714.051908 1157.709543 711.865751 C1169.942331 709.721464 1182.086496 707.068265 1194.324045 704.954008 C1207.125193 702.742582 1220.025339 701.100248 1232.819040 698.850004 C1244.565744 696.784086 1256.196726 694.062894 1267.938425 691.964017 C1277.001169 690.343900 1286.193308 689.451566 1295.261423 687.857084 C1308.733957 685.488187 1322.135202 682.718168 1335.590769 680.248563 C1344.137278 678.679716 1352.748117 677.461088 1361.291697 675.877836 C1371.945505 673.903470 1382.559641 671.713651 1393.191477 669.620145 C1396.120432 669.043363 1399.036570 668.356473 1401.992258 667.993192 C1402.718210 667.903837 1403.575754 668.886503 1404.372873 669.376249 C1403.771311 669.886503 1403.250437 670.633085 1402.555735 670.870389 C1395.543039 673.263700 1388.479319 675.508451 1381.473703 677.921903 C1370.392649 681.739042 1359.350412 685.669218 1348.281809 689.523099 C1336.045847 693.783475 1323.759348 697.901761 1311.564890 702.277494 C1287.482981 710.918485 1263.483103 719.789213 1239.386545 728.388944 C1213.390696 737.666654 1187.282053 746.629056 1161.304026 755.955472 C1148.549997 760.534330 1136.015696 765.722440 1123.305246 770.427518 C1119.245432 771.930326 1114.900705 772.648710 1110.767649 773.978666 C1109.533396 774.376127 1108.575388 775.631742 1107.490671 776.494047 C1108.795481 776.964994 1110.083567 777.787015 1111.407908 777.850492 C1120.597727 778.290922 1129.817942 778.275175 1138.984812 778.976224 C1152.952219 780.044462 1166.887888 781.537382 1180.830271 782.919218 C1190.255564 783.853544 1199.666086 784.934965 1209.088572 785.900052 C1222.366282 787.260160 1235.648996 788.571927 1248.929392 789.907377 C1258.848337 790.904813 1268.773020 791.850736 1278.684275 792.919828 C1293.665354 794.536283 1308.632517 796.283719 1323.615549 797.881010 C1328.293039 798.379789 1333.013254 798.468900 1337.695871 798.928861 C1347.121897 799.854886 1356.540110 800.869901 1365.938791 802.032499 C1366.344553 802.082670 1367.093576 804.287748 1366.722605 804.956449 C1359.775339 817.482328 1360.584421 829.198759 1369.287180 840.335966 C1369.625315 840.768827 1369.820749 841.942045 1369.688669 842.010648 C1368.878122 842.431058 1367.961741 842.841947 1367.066477 842.874906 C1356.649607 843.258329 1346.231150 843.755155 1335.811106 843.806913 C1332.234079 843.824735 1328.655832 842.656156 1325.070017 842.080106 C1316.315378 840.673368 1307.591745 838.506498 1298.789255 838.106718 C1287.798777 837.607694 1276.661570 837.886259 1265.743845 839.163602 C1259.144846 839.935697 1252.680002 842.860746 1246.458567 845.527128 C1241.702707 847.565214 1237.128733 849.161771 1231.854563 848.999662 C1227.673655 848.871122 1223.469431 849.609037 1219.270578 849.884061 C1218.086130 849.961820 1216.883493 849.764066 1215.689280 849.692655 C1216.441477 848.749906 1217.000925 847.444608 1217.978098 846.924833 C1223.188547 844.153470 1225.197947 839.294950 1226.716501 834.084623 C1229.408884 824.846342 1228.207834 815.918729 1222.873850 808.111478 C1219.028147 802.482694 1212.618967 799.946927 1205.874460 800.035184 C1198.810007 800.127469 1191.766550 801.667386 1184.699900 801.794706 C1176.513620 801.942411 1168.313669 801.192167 1160.116770 800.918363 C1148.756784 800.538846 1137.392893 800.001371 1126.033396 800.057645 C1122.776194 800.073759 1119.122873 801.277982 1116.369089 803.051908 C1112.075022 805.818265 1108.517038 809.527616 1107.365061 815.005277 C1104.822702 827.093046 1102.111033 839.145780 1099.355906 851.187162 C1098.978586 852.835966 1097.956980 854.337308 1097.233835 855.906888 C1096.290354 854.195585 1094.863230 852.584257 1094.485422 850.756010 C1092.638010 841.817411 1091.605417 832.677274 1089.243479 823.888090 C1087.147532 816.088041 1086.454294 807.034452 1077.720163 802.827177 C1074.827463 801.433622 1071.546457 800.073270 1068.434031 800.052640 C1058.741770 799.988553 1049.038034 800.440214 1039.353464 800.964872 C1034.715769 801.216093 1033.116648 798.731473 1032.390085 794.806302 C1030.123728 782.562284 1026.780222 770.614530 1021.354075 759.385526 C1015.912546 748.124540 1010.753367 736.638090 1004.235422 726.007841 C995.527659 711.805936 984.790232 698.986967 972.541330 687.632596 C955.084909 671.450956 935.600534 658.193632 913.685740 648.718656 C898.664621 642.224149 883.074656 637.825223 866.948435 634.703397 C849.709665 631.366117 832.397043 631.220731 815.166819 632.150419 C794.303049 633.276151 774.134287 638.531766 754.550608 646.131498 C735.585825 653.491239 718.450083 663.949979 702.660715 676.431913 C690.489389 686.053739 678.946665 696.647245 670.161814 709.698881 C662.110788 721.660062 653.483347 733.340482 646.615000 745.963529 C638.167612 761.488676 633.106821 778.478788 629.391611 795.802030 C625.367136 814.567411 624.995310 833.573392 625.364573 852.646390 C625.407541 854.865385 626.479441 857.725614 622.290415 857.974882 C615.023813 858.407010 612.776926 857.704862 612.468027 853.321317 C611.803232 843.890897 601.453623 837.066434 591.020334 839.385526 C583.195505 841.124662 574.564158 840.810575 566.532908 839.687162 C553.482065 837.861722 545.078562 841.424833 537.275888 853.964017 C536.991221 854.421415 534.120066 854.153348 533.681101 853.453641 C532.649118 851.808988 532.434397 849.671415 531.759470 847.779447 C528.077646 837.458280 516.350290 835.693510 507.604624 837.359159 C504.371836 837.975004 501.527659 840.454618 498.302073 841.343046 C495.873240 842.012113 493.046213 841.897977 490.523386 841.437406 C483.287180 840.116361 476.120005 837.219999 468.917246 837.192899 C458.076365 837.152250 447.572336 839.929471 438.290476 846.327543 C435.990549 847.912748 432.752146 848.598295 429.882883 848.796903 C424.409311 849.175931 418.872263 849.168485 413.400400 848.777128 C411.235605 848.622220 408.542002 847.563749 407.170054 845.980131 C398.768808 836.282743 387.495249 833.766752 376.732920 839.978300 C372.871470 842.206693 369.541819 842.864774 365.222849 841.000638 C350.252268 834.539091 335.224680 836.520658 320.683481 842.371854 C315.594004 844.419706 311.064158 843.113676 306.235056 842.938505 C294.377146 842.508207 282.500101 842.483304 270.655283 841.842313 C257.388071 841.124174 244.160990 839.644681 230.892252 838.980619 C217.547586 838.312650 204.171946 838.279691 190.812052 837.893217 C181.781717 837.631864 172.732431 837.500883 163.743265 836.718656 C161.569498 836.529447 159.190226 834.332426 157.642405 832.452177 C155.812265 830.228788 154.862986 827.299833 153.382853 824.763822 C151.520945 821.573636 152.095011 820.001005 156.021952 819.878446 C163.553324 819.643094 171.097666 819.465238 178.603891 818.858671 C193.064402 817.690336 207.499613 816.212308 221.950663 814.922758 C226.803537 814.489774 231.670755 814.207181 236.534891 813.913602 C247.923746 813.226102 259.321817 812.675443 270.702860 811.879545 C283.296518 810.998929 295.873484 809.882352 308.461313 808.915067 C317.681650 808.206571 326.908884 807.588895 336.130930 806.903104 C349.383982 805.917631 362.635996 804.918973 375.886667 803.902616 C384.278696 803.258939 392.672617 802.631864 401.056528 801.893827 C415.674448 800.607084 430.282175 799.204618 444.900827 797.926053 C450.085398 797.472806 455.289438 797.242948 460.484263 796.906400 C475.902903 795.907865 491.317392 794.836942 506.742380 793.948759 C511.450449 793.677762 516.193308 794.034452 520.906382 793.810087 C521.977366 793.759183 522.990305 792.489286 524.029978 791.780424 C523.371042 791.155912 522.818247 790.298002 522.036936 789.942655 C512.923227 785.797635 503.719187 781.848051 494.647043 777.615262 C472.576120 767.318021 450.637949 756.733182 428.495127 746.594266 C416.320688 741.019926 403.829905 736.137968 391.519419 730.855985 C390.654062 730.484525 390.101572 729.383817 389.403513 728.622343 C390.291147 728.050443 391.238596 726.912382 392.056833 726.998685 C397.433298 727.566190 402.785776 728.371122 408.138681 729.150052 C414.261179 730.041166 420.366037 731.058988 426.496347 731.890531 C436.768869 733.283964 447.045786 734.654691 457.339426 735.878446 C464.211863 736.695219 471.136179 737.084012 478.002024 737.945219 C487.307322 739.112211 496.566050 740.648832 505.869272 741.834501 C512.565317 742.688016 519.319468 743.086088 526.015390 743.941068 C535.317453 745.128690 544.579416 746.628690 553.877451 747.850980 C560.078745 748.666044 566.333994 749.079618 572.528025 749.939847 C583.686716 751.489896 594.812510 753.276884 605.968454 754.848417 C607.054758 755.001371 608.255747 754.340604 609.403513 754.057401 C609.022776 753.340604 608.827951 752.348173 608.234018 751.947294 C592.745188 741.492460 577.133066 731.218778 561.711069 720.667020 C538.962839 705.102811 516.293161 689.422391 493.688303 673.650663 C476.465464 661.634183 459.493235 649.257352 442.231333 637.298002 C422.582590 623.685087 402.660715 610.466825 382.997751 596.874113 C365.861704 585.028165 348.992929 572.795499 331.855478 560.951627 C325.579905 556.614469 318.845957 552.944059 312.386484 548.866056 C311.336924 548.203519 310.628305 547.001188 309.762095 546.048246 C311.351328 545.876554 313.197947 545.087125 314.491037 545.625944 C333.109751 553.385648 351.593454 561.470365 370.232065 569.180753 C391.432016 577.950651 412.800425 586.312833 434.010263 595.059171 C454.223215 603.394315 474.273020 612.125638 494.493845 620.441190 C511.582712 627.468900 528.889597 633.968290 545.955027 641.050565 C557.047922 645.654325 567.875071 650.897001 578.838938 655.814237 C579.959177 656.316678 581.183603 656.637357 582.392954 656.868314 C582.969736 656.978544 583.624765 656.679594 584.244333 656.566068 C583.996958 655.879178 583.920908 655.044584 583.475718 654.528348 C578.804575 649.110868 573.947825 643.849271 569.387583 638.341459 C560.574534 627.697538 551.978037 616.874174 543.180307 606.217313 C536.082834 597.620023 528.741709 589.223905 521.656382 580.616910 C515.136301 572.696439 508.863962 564.572477 502.389292 556.613981 C495.782114 548.492338 489.040293 540.480314 482.395823 532.388822 C474.947092 523.317899 467.584665 514.175931 460.104563 505.131010 C453.211130 496.795621 446.123056 488.620267 439.279551 480.244596 C429.533091 468.315763 419.992136 456.219022 410.244944 444.290861 C404.718393 437.527921 398.895029 431.008329 393.312815 424.289945 C385.291697 414.636259 377.369211 404.900602 369.403269 395.201078 C363.581430 388.112455 357.722361 381.053983 351.941599 373.932035 C339.191172 358.223417 326.564341 342.413663 313.723398 326.779569 C304.799936 315.915006 295.497690 305.361722 286.561472 294.507291 C278.516062 284.734830 270.872385 274.630948 262.795908 264.885099 C257.386148 258.357267 251.536783 252.193204 245.865610 245.882963 C244.975626 244.892728 243.771799 244.119413 243.109568 243.009305 C242.529398 242.036527 242.506327 240.731534 242.237131 239.573270 C243.493021 239.718229 245.145456 239.402006 245.939188 240.084440 C250.415232 243.933134 254.530039 248.207303 259.058481 251.988553 C267.559458 259.086881 276.314524 265.879972 284.858194 272.928190 C291.722239 278.590787 298.346567 284.544584 305.226938 290.186674 C315.399973 298.528837 325.750376 306.654508 335.938913 314.977933 C342.445749 320.293729 348.728403 325.883817 355.232492 331.203031 C367.413645 341.164823 379.731577 350.959379 391.898142 360.938810 C400.389231 367.903409 408.655832 375.141813 417.146433 382.107145 C425.323435 388.815031 433.738901 395.232755 441.901377 401.957853 C449.026621 407.828275 455.843210 414.074003 462.980661 419.928922 C472.895639 428.062650 483.042429 435.913297 492.975718 444.025114 C499.740488 449.549344 506.222178 455.420133 512.986948 460.944303 C522.920237 469.056058 533.052805 476.923795 542.986094 485.035612 C549.750864 490.559781 556.242807 496.417631 562.994700 501.958158 C573.293100 510.408903 583.756479 518.658414 594.063486 527.098905 C602.303415 533.846586 610.466074 540.691190 618.569956 547.601957 C628.443552 556.022001 638.198069 564.581754 648.075205 572.997709 C648.953013 573.745573 650.354441 573.878873 651.512766 574.297697 C651.399546 572.923978 651.675791 571.359586 651.111582 570.206632 C646.632273 561.054044 641.743479 552.095792 637.452768 542.858427 C626.808664 519.942594 616.518259 496.862394 605.861399 473.952604 C602.473764 466.669889 598.178598 459.811674 594.722422 452.557279 C593.587778 450.175687 593.789804 447.157133 593.380503 444.429899 C595.030344 446.064420 596.888437 447.537870 598.297007 449.358915 C609.316294 463.605802 620.213694 477.946866 631.219309 492.204374 C641.659678 505.729642 652.135508 519.228239 662.688181 532.665922 C672.874582 545.637235 683.292978 558.427396 693.402048 571.457975 C705.312998 586.811185 716.981211 602.352567 728.825449 617.757963 C729.698313 618.893217 731.142344 619.589384 732.320810 620.489652 C732.348398 619.110624 732.631907 617.679594 732.364817 616.360258 C728.755747 598.534757 724.844431 580.767423 721.471140 562.898221 C718.482065 547.064298 716.265696 531.085416 713.350107 515.236417 C710.254282 498.407438 706.556162 481.689237 703.459177 464.860441 C700.855173 450.710660 698.953623 436.431425 696.339243 422.283781 C693.976755 409.499296 690.890513 396.849637 688.456064 384.077115 C686.208872 372.286466 684.510752 360.392179 682.373728 348.579191 C680.191172 336.515165 677.706736 324.506071 675.469553 312.451505 C673.369394 301.135953 671.505381 289.776273 669.363596 278.468961 C668.436289 273.573514 667.047007 268.766508 665.924570 263.906217 C665.639048 262.669645 665.400339 261.373014 665.471811 260.122892 C665.510813 259.442228 666.246347 258.801481 666.667673 258.142728 C667.256907 258.574735 668.133677 258.880033 668.388987 259.459196 C670.127390 263.403287 671.818125 267.372953 673.369700 271.393949 C678.748362 285.333219 683.894480 299.364591 689.443552 313.235135 C697.621897 333.677823 706.038218 354.025663 714.412912 374.389310 C722.143320 393.186307 729.973948 411.942045 737.720469 430.732572 C745.408213 449.380704 753.095713 468.029325 760.690195 486.715604 C766.777720 501.694059 772.686533 516.745145 778.779123 531.721464 C779.667185 533.904508 781.136911 535.850980 782.337473 537.906888 C782.692820 535.498014 783.214670 533.100309 783.376535 530.678495 C784.429148 514.930204 785.272104 499.166776 786.451059 483.428312 C787.195505 473.490446 788.448130 463.591581 789.392710 453.667509 C790.767527 439.224332 792.085215 424.775602 793.397287 410.326566 C794.098398 402.606107 794.667795 394.873258 795.418955 387.157926 C796.696238 374.038541 798.112253 360.932767 799.381540 347.812650 C799.850657 342.964017 800.049448 338.089750 800.407480 333.229825 C801.396067 319.810392 802.337168 306.386930 803.424082 292.975370 C804.323252 281.881803 805.403513 270.803007 806.403513 259.717618 C807.403513 248.632291 808.420237 237.548368 809.399485 226.461210 C810.748972 211.182218 812.086863 195.902067 813.396799 180.619596 C814.101389 172.399320 814.620310 164.161588 815.430613 155.952238 C816.660105 143.494718 818.140085 131.062040 819.378611 118.605314 C820.178415 110.561674 820.675730 102.488431 821.416941 94.438383 C822.701609 80.486722 824.081369 66.543882 825.396433 52.594968 C825.775950 48.570890 826.201365 44.544492 826.377268 40.509214 C826.792429 30.984525 827.014719 21.451414 827.432444 11.926877 C827.587351 8.390592 828.020334 4.862516 828.457590 1.346952 C828.523020 0.820920 829.284372 0.037076 829.769968 0.001676 C830.286081 -0.035983 831.169870 0.568265 831.344065 1.079374 C831.845652 2.550596 832.276438 4.103605 832.370676 5.646757 C833.096994 17.533170 833.461374 29.448636 834.483347 41.308103 C835.443918 52.454160 837.126047 63.536558 838.383127 74.659147 C839.160471 81.536863 839.699411 88.441190 840.411570 95.326749 C841.716379 107.943632 843.112864 120.551115 844.381418 133.171476 C844.851877 137.852750 844.955149 142.571012 845.425608 147.252347 C846.694162 159.872709 848.129099 172.476469 849.382151 185.098356 C850.164255 192.977079 850.637278 200.886625 851.426340 208.764615 C852.673899 221.220365 854.139963 233.654386 855.378611 246.111051 C856.178293 254.154691 856.600901 262.236417 857.435617 270.275846 C858.642893 281.902921 860.108225 293.502897 861.383371 305.123197 C861.842234 309.304532 862.049631 313.512968 862.407297 317.706022 C863.395945 329.292325 864.216745 340.897001 865.451853 352.457181 C866.912058 366.121732 868.845285 379.735197 870.362253 393.394254 C871.254465 401.426115 871.580271 409.520170 872.437571 417.556669 C873.983469 432.045377 875.791697 446.505826 877.372629 460.990934 C877.901072 465.831388 877.948191 470.723112 878.427195 475.570524 C879.690744 488.357938 881.180368 501.123929 882.341745 513.920072 C882.731882 518.217863 882.256052 522.588834 882.490061 526.909330 C882.563913 528.270353 883.660593 529.575956 884.289133 530.906888 C884.938303 529.795804 885.788767 528.755399 886.207346 527.563383 C896.633860 497.881071 906.925119 468.150846 917.453440 438.504911 C921.008005 428.496305 925.354319 418.769681 928.940744 408.771268 C931.445505 401.788297 933.258493 394.558011 935.418528 387.449735 C935.775217 386.275846 936.086496 384.940458 936.865671 384.088529 C937.511789 383.382047 938.816477 383.277921 939.829416 382.906888 C939.733591 383.694120 939.672068 384.487394 939.536692 385.267789 C937.164499 398.949552 934.804148 412.633451 932.396799 426.309110 C930.429392 437.485990 928.200022 448.620939 926.462839 459.832853 C924.850901 470.236967 923.942942 480.749784 922.347361 491.156949 C920.650950 502.222013 918.377024 513.197660 916.616526 524.253934 C915.609934 530.576444 915.236643 536.996976 914.376047 543.346036 C913.203318 551.996000 911.734568 560.606107 910.588938 569.259305 C909.704294 575.939725 909.112497 582.659208 908.407175 589.363065 C908.053659 592.722806 907.670359 596.081937 907.452219 599.451261 C907.400583 600.249540 907.959543 601.087308 908.237497 601.906888 C909.225046 601.474637 910.607981 601.322538 911.142160 600.568998 C923.002634 583.838163 934.647776 566.954008 946.588572 550.281278 C958.213694 534.049283 970.239328 518.104154 981.881174 501.883939 C1000.951609 475.313932 1019.896555 448.653470 1038.808664 421.970487 C1048.105906 408.853177 1057.184031 395.580778 1066.409372 382.412260 C1078.992380 364.450956 1091.706858 346.580900 1104.184641 328.547086 C1108.533030 322.262601 1112.291697 315.572477 1116.459909 309.158719 C1117.110422 308.157804 1118.512400 307.645292 1119.566843 306.906888 C1119.512400 308.087491 1119.786814 309.408842 1119.351389 310.426481 C1116.019236 318.213834 1112.450754 325.900541 1109.143259 333.698026 C1103.491526 347.022245 1098.020212 360.423063 1092.389353 373.756254 C1088.016184 384.111661 1083.475657 394.396146 1079.081125 404.742704 C1072.820871 419.481901 1066.631174 434.251066 1060.401804 449.003385 C1055.909494 459.642179 1051.373484 470.262723 1046.907419 480.912504 C1040.714670 495.679899 1034.567575 510.466581 1028.404001 525.246183 C1024.314646 535.051908 1020.311594 544.894620 1016.116282 554.654752 C1013.196360 561.447233 1009.976145 568.110197 1007.002024 574.880216 C1006.626169 575.735929 1006.930979 576.890714 1006.920481 577.906888 C1007.939035 577.549283 1009.179880 577.450773 1009.943186 576.795927 C1024.694773 564.140470 1039.263254 551.268705 1054.133860 538.755826 C1068.654367 526.537687 1083.479685 514.682157 1098.156199 502.649076 C1113.089304 490.405668 1127.963816 478.090726 1142.937571 465.897489 C1158.497385 453.226957 1174.227366 440.764432 1189.731272 428.026395 C1204.196482 416.141752 1218.374704 403.908048 1232.839792 392.023405 C1248.343699 379.285367 1264.103586 366.858854 1279.624338 354.141080 C1293.720041 342.591031 1307.569407 330.740262 1321.665110 319.190214 C1337.185984 306.472440 1352.990915 294.099576 1368.433298 281.288602 C1380.787180 271.039884 1392.782419 260.359098 1404.939158 249.872953 C1407.269846 247.862516 1409.498972 245.703397 1412.010447 243.950468 C1412.877146 243.345548 1414.460398 243.766996 1415.716257 243.719572 C1415.467356 244.759977 1415.541575 246.084867 1414.916819 246.794401 C1411.014597 251.226469 1406.784617 255.376737 1402.985422 259.891569 C1395.322092 268.998380 1387.903513 278.310758 1380.311472 287.478177 C1373.412302 295.808988 1366.333200 303.991605 1359.484079 312.362760 C1349.624582 324.413358 1339.941843 336.608365 1330.107615 348.679716 C1322.275217 358.293607 1314.269114 367.766019 1306.447580 377.388822 C1295.313669 391.087064 1284.305246 404.887357 1273.188425 418.599698 C1268.330027 424.592130 1263.336008 430.474515 1258.153513 436.656949 M611.403513 794.406888 C608.913340 788.194120 605.528147 782.849393 599.883982 778.738798 C585.118601 767.985013 566.675486 770.041898 555.404123 782.783353 C541.115244 798.935819 545.820566 822.229398 565.420420 831.763334 C580.123423 838.914945 596.455027 835.585721 607.024912 821.700468 C613.015574 813.830839 613.888498 804.829740 611.403513 794.406888 z"/><path class="selected"  fill="#000000" opacity="1.000000" stroke="none" 
 	d="
M991.653513 842.156888 C982.197214 843.834379 975.243845 838.609281 974.492502 829.134794 C974.052195 823.581815 973.805368 817.801298 977.774241 813.044828 C983.307566 806.413602 990.925974 807.424467 998.055246 808.194608 C1009.176096 809.396024 1020.125315 810.337919 1031.409006 809.133207 C1043.828196 807.807157 1056.460276 807.626859 1068.950754 808.139799 C1076.283640 808.441068 1078.750193 815.316923 1080.323801 821.457914 C1083.267405 832.945585 1085.465281 844.626005 1088.471384 856.095609 C1092.346872 870.881986 1095.196970 885.737577 1094.454660 901.117704 C1094.398020 902.293851 1094.962473 903.550321 1095.439646 904.684720 C1095.781809 905.498685 1096.460276 906.171293 1096.988718 906.906888 C1097.460276 906.114652 1098.272654 905.355497 1098.353708 904.525052 C1100.274851 884.831205 1102.118967 865.175687 1108.276804 846.147977 C1111.338816 836.686552 1112.830515 826.728300 1115.483957 817.119413 C1117.398508 810.186552 1120.979807 807.788602 1128.015329 807.935575 C1138.709909 808.158964 1149.407785 808.433866 1160.088938 808.982694 C1163.836130 809.175199 1167.542429 810.800931 1171.260202 810.774320 C1176.699289 810.735502 1182.120798 809.559476 1187.570261 809.301053 C1194.901072 808.953885 1202.356028 808.212919 1209.562082 809.148466 C1215.925852 809.974515 1219.297922 815.858671 1219.432077 822.484525 C1219.561472 828.880399 1219.666941 834.931425 1214.164988 839.890775 C1210.612742 843.092802 1206.610178 843.833036 1202.928293 842.682767 C1195.126535 840.245267 1191.722361 843.064725 1191.574534 851.175565 C1191.109812 876.660062 1191.366037 902.158719 1191.472239 927.651395 C1191.481028 929.767240 1192.338694 931.919095 1193.016550 933.983915 C1194.165964 937.485746 1196.657175 938.870634 1200.159861 937.613431 C1209.934641 934.105253 1220.666086 942.815580 1219.504831 952.352445 C1218.890085 957.401639 1220.010691 962.577421 1215.975290 966.944852 C1209.980173 973.433500 1202.665720 972.417264 1195.269358 971.246732 C1183.115061 969.323514 1170.996409 967.618802 1158.658884 969.851469 C1153.162546 970.846097 1147.567209 971.335599 1142.000193 971.888090 C1128.067209 973.270658 1122.044870 960.637235 1125.334543 949.426176 C1128.129587 939.900663 1131.134836 936.788969 1138.247995 936.906888 C1146.931589 937.050931 1148.100534 936.081693 1148.360910 927.344388 C1148.570993 920.295438 1148.158762 913.224637 1148.461618 906.182401 C1148.901682 895.951810 1149.760447 885.739408 1150.384348 875.515775 C1150.516062 873.357694 1150.326609 871.181669 1150.417551 869.019315 C1150.713327 861.991117 1151.174021 854.967435 1151.311594 847.936918 C1151.337595 846.605497 1150.173166 845.250883 1149.558054 843.906888 C1148.839792 844.981107 1147.777170 845.962064 1147.456736 847.144315 C1144.367746 858.540555 1141.489939 869.994535 1138.384226 881.386259 C1133.121164 900.690458 1127.749704 919.965116 1122.395823 939.244413 C1120.779123 945.066190 1118.826731 950.805936 1117.464060 956.684232 C1115.682200 964.370756 1111.946848 969.487455 1103.451853 970.440458 C1094.487009 971.446195 1085.535959 972.222318 1079.823313 963.572904 C1077.172556 959.559476 1075.833689 954.558622 1074.470774 949.840482 C1071.583323 939.845121 1069.073679 929.740873 1066.402659 919.683011 C1061.738840 902.120511 1057.056955 884.562894 1052.410471 866.995756 C1050.700876 860.532743 1049.198557 854.010892 1047.304026 847.603910 C1046.883371 846.180936 1045.206614 845.129423 1044.108103 843.906888 C1043.539866 845.464384 1042.420237 847.048002 1042.492258 848.575345 C1042.990427 859.137479 1043.909128 869.680692 1044.358713 880.244169 C1044.884226 892.594510 1045.014231 904.961088 1045.430368 917.316923 C1045.599802 922.349637 1045.969675 927.381620 1046.437571 932.396268 C1046.771555 935.975858 1050.641672 938.677152 1053.931589 937.878812 C1059.339182 936.566678 1063.643137 937.972318 1066.262400 942.314359 C1070.902414 950.006376 1071.174387 959.531156 1065.933176 966.487211 C1063.846018 969.257474 1059.300364 971.551176 1055.829050 971.614896 C1048.696726 971.746122 1041.553415 969.880033 1034.378733 969.484037 C1027.050730 969.079252 1019.663157 969.151884 1012.332102 969.561552 C1003.983469 970.028104 995.650339 971.873075 987.344309 971.677396 C979.848825 971.500638 976.392649 965.790433 974.647898 958.753934 C972.378489 949.600370 977.014109 939.719144 985.583078 937.348295 C988.198191 936.624662 991.200510 936.568021 993.892038 937.013090 C998.672068 937.803251 1002.159128 935.566801 1002.366404 930.679838 C1002.545359 926.464750 1002.403513 922.236112 1002.403513 918.013456 C1002.403513 896.186063 1002.403513 874.358671 1002.403513 852.531278 C1002.403513 844.049711 1000.285837 841.906888 991.653513 842.156888 z"/><path class="selected"  fill="#000000" opacity="1.000000" stroke="none" 
 	d="
M119.653513 908.156888 C106.604654 912.093290 93.475168 910.645414 80.457285 910.894803 C75.510111 910.989530 72.360086 913.912382 72.455668 918.981718 C72.541086 923.512845 72.862101 928.063260 73.459177 932.554594 C74.119822 937.523832 79.310892 939.558988 86.043497 937.766874 C95.044901 935.371000 103.135569 941.367582 103.393564 950.657865 C103.459848 953.045316 103.586679 955.452909 103.371042 957.822538 C102.538431 966.971708 97.077036 972.259061 88.020914 971.826932 C73.261362 971.122831 58.535563 969.372220 43.777140 969.114164 C35.382151 968.967191 26.969935 971.502347 18.531382 971.775175 C3.859095 972.249540 -3.991507 959.473173 2.050058 945.760282 C5.469294 937.999418 10.430018 935.652006 18.821039 937.824369 C24.545389 939.306180 28.083597 937.108304 28.317667 930.976713 C28.909784 915.465238 29.145395 899.938383 29.376200 884.415555 C29.522333 874.588773 29.480097 864.757352 29.355722 854.930082 C29.319529 852.071439 28.932550 849.169462 28.302851 846.378446 C27.584681 843.195341 23.163584 840.895658 19.843973 842.022123 C11.759531 844.765531 3.683451 842.296537 0.802271 830.611234 C-1.157568 822.662626 0.726313 810.954740 10.483652 809.136625 C16.790476 807.961454 23.621836 808.258695 30.018198 809.222684 C39.498880 810.651639 48.808756 811.830228 58.361551 809.983793 C62.465891 809.190458 66.727671 809.100614 70.927561 808.934354 C81.447916 808.517728 92.012125 807.517484 102.488627 808.073270 C118.900919 808.944120 134.432566 813.359159 144.913340 827.149076 C153.712107 838.725614 158.650003 851.677518 155.518778 866.932645 C151.926188 884.435331 143.251841 897.794828 126.999582 905.735990 C124.804575 906.808256 122.277079 907.199979 119.653513 908.156888 M72.403513 850.406888 C72.403513 858.563749 72.381479 866.720731 72.413004 874.877469 C72.428232 878.813383 74.477793 880.856962 78.412485 880.897367 C82.573740 880.940214 86.765421 880.587186 90.891520 880.970487 C100.831400 881.893705 108.507059 873.527738 110.322825 863.697538 C111.634195 856.598051 107.952280 847.420194 97.348063 844.542875 C92.297251 843.172513 86.816782 843.082059 81.522562 843.007719 C77.257486 842.947782 73.498789 844.511259 72.403513 850.406888 z"/><path class="selected"  fill="#000000" opacity="1.000000" stroke="none" 
 	d="
M1392.403513 925.906888 C1392.403513 904.908231 1392.403513 884.409696 1392.403513 863.911039 C1392.403513 856.854398 1392.480051 849.796537 1392.378855 842.741361 C1392.301218 837.333890 1388.914743 834.808011 1383.516794 835.907010 C1376.711741 837.292509 1371.274241 833.566312 1370.603464 825.782499 C1370.190134 820.985380 1371.207956 815.869779 1372.537180 811.166898 C1374.208078 805.255277 1379.261789 802.973173 1384.987497 802.986478 C1393.016306 803.005033 1401.041941 803.755521 1409.072580 803.837308 C1413.763620 803.885160 1418.457834 803.052152 1423.157541 802.957059 C1428.423533 802.850126 1431.384958 805.951078 1431.390818 811.295072 C1431.419138 836.683866 1431.428049 862.072782 1431.360056 887.461332 C1431.354197 889.657255 1430.602610 891.843778 1430.473581 894.050809 C1430.426096 894.865262 1431.022287 895.878446 1431.632761 896.497465 C1431.908152 896.776884 1433.204783 896.560697 1433.583323 896.149930 C1439.567087 889.658109 1445.292795 882.916166 1451.489939 876.638822 C1454.136911 873.957792 1452.885325 872.723051 1450.930368 870.894315 C1447.236155 867.438627 1444.306589 863.585477 1444.376658 858.111112 C1444.459665 851.625638 1448.892405 846.741361 1455.502512 846.984647 C1465.569895 847.354886 1475.616037 848.715848 1485.675364 848.761136 C1494.228830 848.799711 1502.778025 847.345853 1511.347483 846.975004 C1518.896067 846.648466 1521.996653 848.744047 1523.718454 855.911527 C1524.686838 859.943021 1525.112497 864.636136 1523.989573 868.511747 C1522.384470 874.052762 1518.879831 878.002836 1508.409250 874.720243 C1503.543161 873.194852 1500.548288 874.751859 1497.257395 877.523954 C1493.077707 881.045072 1489.086863 884.907255 1484.491648 887.788358 C1479.070627 891.187406 1477.675974 896.086454 1481.765818 901.927274 C1489.858103 913.484403 1497.575144 925.315336 1505.102610 937.250516 C1507.693918 941.359159 1510.374826 942.909452 1515.346018 942.030668 C1525.158762 940.296415 1530.257761 945.936063 1529.389597 955.046415 C1529.147776 957.583646 1528.992502 960.171659 1528.350046 962.618925 C1527.043772 967.593290 1523.603708 970.072660 1518.457346 969.886991 C1511.426340 969.633451 1504.399729 968.963651 1497.372385 968.979764 C1489.343576 968.998197 1481.252024 969.054105 1473.304270 970.037504 C1463.217356 971.285428 1456.593943 960.833036 1461.820383 951.636136 C1465.187693 945.711088 1463.948069 941.923978 1461.328684 937.427518 C1458.258005 932.156400 1454.733591 927.149564 1451.403025 922.030057 C1448.892649 918.171293 1446.601511 917.721342 1443.260080 920.575834 C1440.161936 923.222318 1437.206492 926.036283 1434.104197 928.677762 C1431.089304 931.245145 1431.020090 934.691801 1431.482248 938.057523 C1431.957224 941.517362 1435.613108 942.954984 1439.992136 941.818143 C1445.670115 940.344388 1448.943064 941.929838 1451.410715 947.249662 C1454.555735 954.029691 1453.186228 963.783964 1447.777292 968.127103 C1442.721262 972.186918 1437.117502 970.738309 1431.553782 970.575590 C1421.922312 970.293729 1412.287058 969.942655 1402.654367 969.967924 C1395.792185 969.985990 1388.919504 970.983304 1382.073435 970.785428 C1375.894846 970.606840 1373.295237 967.354642 1371.322092 960.791288 C1369.809763 955.761259 1369.956125 951.126737 1372.318674 946.474271 C1374.755686 941.675199 1378.429880 939.891508 1383.279367 941.282621 C1391.035593 943.507596 1392.403513 942.552640 1392.403513 934.912015 C1392.403513 932.076932 1392.403513 929.241971 1392.403513 925.906888 z"/><path class="selected"  fill="#000000" opacity="1.000000" stroke="none" 
 	d="
M851.653513 966.656888 C847.964914 962.376981 846.598459 949.481595 850.165842 945.995023 C852.767405 943.452421 857.044382 942.685941 860.411936 940.832548 C861.649118 940.151761 862.744822 938.760770 863.304636 937.439481 C863.783274 936.309476 863.371897 934.815092 863.408396 933.483304 C863.733347 921.626493 864.332590 909.768705 864.272654 897.914091 C864.249094 893.252714 863.719431 888.135404 861.740305 884.037015 C857.498362 875.253202 844.997141 874.395292 837.309519 881.434965 C831.437815 886.811796 829.745676 893.829862 829.500681 901.174589 C829.128855 912.323759 829.344553 923.495145 829.433176 934.656034 C829.467722 938.994535 830.955637 942.004545 836.198069 941.990385 C840.710032 941.978300 844.518381 946.334623 844.362009 950.915311 C844.230051 954.782377 844.225534 958.760038 843.291819 962.469022 C841.800486 968.393339 838.017771 971.153837 832.102366 970.840726 C824.700632 970.449125 817.331736 969.155790 809.935495 969.029569 C803.139475 968.913602 796.193247 969.145414 789.547983 970.434476 C776.203501 973.022855 767.042551 966.690214 769.436655 951.735135 C770.626535 944.302274 774.726450 940.439725 780.380014 940.907010 C790.403513 941.735380 790.403513 941.735258 790.403513 931.474882 C790.403513 917.090970 790.359446 902.706693 790.421030 888.323148 C790.454905 880.409086 787.098520 878.956571 780.794138 880.011869 C775.349131 880.923368 771.741770 878.825468 770.166147 873.086698 C767.953562 865.028104 767.846140 857.286771 774.797678 850.945951 C780.161936 846.053007 786.568979 848.439359 792.551889 847.958890 C796.084604 847.675077 799.658701 847.906888 803.214182 847.906888 C807.878733 847.906888 812.684397 847.246000 817.145945 848.197660 C819.240061 848.644559 821.375071 851.961942 822.196726 854.412626 C822.950510 856.660551 821.816355 859.491605 821.807322 862.066678 C821.802927 863.320829 822.467600 864.577299 822.829416 865.832792 C823.869455 865.175443 825.466135 864.754789 825.861765 863.823636 C829.113718 856.169462 836.068674 852.757596 842.739695 849.274320 C845.820139 847.665555 849.610178 847.143705 853.148386 846.732938 C865.146433 845.339750 877.288523 843.911283 888.206247 850.955228 C896.141550 856.075101 900.845774 863.863431 901.231028 873.057767 C902.110910 894.054105 902.089304 915.088529 902.391184 936.108060 C902.474802 941.928617 904.226755 943.314847 909.955881 941.854520 C918.228464 939.745511 922.753733 942.695341 923.366282 950.782133 C923.596384 953.820341 923.601755 956.906156 923.366282 959.943510 C922.677561 968.826200 917.689890 970.551908 911.559763 970.701078 C903.860300 970.888578 896.132151 969.186185 888.401560 969.028348 C882.111033 968.899930 875.784983 969.712308 869.499582 970.352079 C863.241526 970.989286 856.899607 972.523832 851.653513 966.656888 z"/><path class="selected"  fill="#000000" opacity="1.000000" stroke="none" 
 	d="
M1262.153513 899.656888 C1272.003977 897.240262 1281.665354 895.304471 1291.175242 892.794706 C1295.039988 891.774808 1298.394724 889.807157 1299.565012 884.924833 C1300.939280 879.191068 1300.988108 873.970487 1295.644114 870.894437 C1291.058786 868.255033 1285.536081 867.549467 1280.480539 870.049344 C1279.018747 870.772245 1277.612986 873.174589 1277.534494 874.869535 C1277.086618 884.555204 1271.977610 890.241117 1263.775705 892.825956 C1254.902659 895.622587 1245.374094 891.754178 1240.342234 884.789335 C1231.465159 872.502347 1238.240183 859.023954 1249.139597 852.911039 C1256.280100 848.906278 1263.976999 847.080717 1272.146189 846.878812 C1280.509592 846.672147 1288.888010 845.726224 1297.221750 846.058500 C1304.826853 846.361722 1312.551584 847.267240 1319.916697 849.124540 C1330.183298 851.713041 1336.640574 858.753324 1338.335520 869.396635 C1339.370310 875.893827 1340.176462 882.488309 1340.313059 889.055204 C1340.607492 903.212919 1340.403513 917.381132 1340.403513 931.544950 C1340.403513 938.281644 1342.087107 939.902372 1349.088938 939.906766 C1356.411692 939.911405 1361.157297 943.115507 1362.403513 948.896268 C1364.734934 959.710599 1358.883982 970.231473 1347.814524 971.568387 C1339.058420 972.626005 1329.485666 974.011136 1321.157785 968.819974 C1318.571238 967.207548 1316.598459 964.593046 1314.397409 962.384916 C1312.134348 960.114408 1310.780466 957.716215 1306.539011 960.731229 C1294.593943 969.222562 1281.035349 973.439359 1266.238474 971.820829 C1257.548777 970.870145 1248.816111 969.021512 1241.740427 963.541898 C1236.539011 959.513944 1233.634226 953.719633 1232.008982 947.137357 C1229.717478 937.856718 1229.088816 928.514310 1232.576242 919.721708 C1236.730295 909.248319 1246.332834 904.564237 1256.331492 900.949491 C1258.085276 900.315580 1260.041086 900.240140 1262.153513 899.656888 M1272.903513 923.906888 C1265.628367 931.182035 1267.117868 937.761381 1276.752268 940.906766 C1286.303415 944.025175 1297.461741 938.105253 1300.246897 927.791532 C1301.278269 923.972440 1300.526194 919.671903 1300.587595 915.590848 C1297.597605 916.362821 1294.584787 917.057279 1291.622263 917.923124 C1285.535105 919.702421 1279.474802 921.573392 1272.903513 923.906888 z"/><path class="selected"  fill="#000000" opacity="1.000000" stroke="none" 
 	d="
M165.653513 909.156888 C177.355539 900.372587 191.156412 898.877714 204.482187 895.811796 C210.319712 894.468656 216.290506 892.779081 221.507853 889.963041 C225.588266 887.760770 226.710337 880.186796 224.930033 875.949369 C222.896891 871.110013 218.790384 869.380887 213.945047 868.928373 C212.458506 868.789579 210.947367 868.876981 209.448679 868.912382 C204.612345 869.026884 202.537485 871.098295 202.403544 875.908109 C202.055185 888.413236 190.326029 896.429105 178.154612 892.989408 C167.973948 890.112211 162.499765 883.144193 161.676401 873.345731 C161.134440 866.896268 164.184214 860.639310 169.574167 856.273588 C177.597696 849.774686 187.057596 847.322294 197.175730 846.908597 C205.534494 846.566923 213.933268 845.587064 222.241983 846.088529 C230.736216 846.601346 239.286539 847.996244 247.548960 850.059598 C256.931253 852.402494 261.729624 859.339384 263.455088 868.808256 C267.277170 889.783353 264.605875 910.921781 265.369272 931.969144 C265.592722 938.130521 267.186808 939.882963 273.510080 939.906888 C283.138315 939.943265 285.861490 941.770292 287.403574 949.228666 C289.753550 960.594877 285.857096 968.211332 274.522623 971.015653 C266.251352 973.062162 257.296549 973.433378 249.192850 969.915800 C245.459848 968.295438 242.307505 964.869779 239.502543 961.719022 C237.017557 958.927885 235.586893 958.053983 232.004374 960.593290 C217.791941 970.667386 201.946878 974.539945 184.750895 970.644437 C177.615427 969.027982 169.824869 967.774686 165.296457 961.121366 C161.833506 956.033475 158.021586 950.578519 156.747049 944.764554 C155.271372 938.033231 155.596964 930.606107 156.658762 923.714872 C157.507822 918.204374 160.633554 913.046659 165.653513 909.156888 M226.903513 921.906888 C225.915567 915.544095 225.917887 915.551176 218.961649 917.827054 C218.512217 917.974149 217.965250 917.803373 217.498270 917.919462 C212.219523 919.232816 206.890726 920.384794 201.687052 921.950956 C193.853800 924.308988 192.179850 932.307157 197.454355 938.600248 C201.812967 943.800443 213.605631 942.043241 219.330790 937.577177 C224.374949 933.642240 226.064035 928.178617 226.903513 921.906888 z"/><path class="selected"  fill="#000000" opacity="1.000000" stroke="none" 
 	d="
M1568.653513 968.656888 C1556.156443 964.396757 1547.325510 956.177274 1540.408640 945.627103 C1534.392160 936.450223 1532.147043 926.287260 1531.217966 915.396512 C1530.117014 902.491239 1531.212595 890.127469 1536.459055 878.331083 C1541.802073 866.317777 1550.418406 857.636136 1562.485178 851.728910 C1574.942575 845.630765 1588.005686 844.927640 1601.039866 846.128202 C1621.664133 848.027738 1636.929514 857.978666 1644.596628 878.387235 C1648.520823 888.833280 1649.292551 899.109403 1647.424387 909.871976 C1646.463938 915.405179 1642.741648 916.909208 1637.815134 916.908353 C1617.328562 916.904813 1596.841867 916.902738 1576.355295 916.910184 C1571.837351 916.911893 1569.292307 920.099393 1570.414377 924.408353 C1574.305246 939.348783 1594.395945 947.871122 1607.795481 935.942899 C1611.996775 932.202909 1615.209055 927.004789 1619.915110 924.257596 C1627.602610 919.769681 1642.941111 923.091459 1645.740915 932.725858 C1647.942331 940.300931 1645.512522 946.884550 1641.019358 952.682645 C1632.981638 963.054838 1621.913401 968.800687 1609.201975 970.782743 C1596.551096 972.755277 1583.755442 973.469755 1571.251902 969.277738 C1570.510935 969.029447 1569.688181 969.024930 1568.653513 968.656888 M1605.903513 892.906888 C1610.908884 891.700223 1611.952585 887.171049 1608.711863 881.684720 C1600.616159 867.979642 1581.266794 868.477811 1572.541208 881.499662 C1570.942209 883.885770 1569.905344 888.008451 1570.912790 890.329740 C1571.652903 892.034818 1576.134836 892.695951 1578.985300 892.796659 C1587.615305 893.101346 1596.262766 892.906888 1605.903513 892.906888 z"/><path class="selected"  fill="#000000" opacity="1.000000" stroke="none" 
 	d="
M754.653513 882.656888 C757.718760 892.892118 758.981394 903.042142 758.420786 913.430814 C757.419382 931.985380 751.791391 948.600004 737.494089 961.171903 C729.912058 967.838773 720.494394 970.826932 710.502817 971.902616 C707.146860 972.263944 703.777781 972.919462 700.427805 972.845731 C687.400461 972.558866 674.433664 972.319608 662.765574 964.890043 C649.738291 956.595243 641.894175 944.580839 638.620432 930.088529 C635.025766 914.175077 634.825632 897.944120 640.409678 882.167997 C647.294992 862.715970 660.463205 850.867948 681.081736 846.734037 C695.301218 843.883085 709.007761 844.458036 722.571421 848.973539 C732.739573 852.358304 741.364878 858.332548 747.232431 867.416410 C750.213511 872.031766 752.049753 877.386381 754.653513 882.656888 M710.903574 936.906888 C713.070200 933.808011 716.539255 930.947050 717.156870 927.565092 C718.939035 917.808011 720.399241 907.994169 718.562693 897.851835 C716.605784 887.045194 714.726023 879.944974 701.368235 876.448148 C692.169077 874.040067 681.064646 879.299344 678.472727 889.368436 C675.573008 900.633085 676.042063 912.047269 677.280405 923.589261 C679.080332 940.366239 697.919077 947.446317 710.903574 936.906888 z"/><path class="selected"  fill="#000000" opacity="1.000000" stroke="none" 
 	d="
M423.653513 925.156888 C432.451914 918.778959 443.491709 919.750516 450.451181 929.694730 C459.199045 942.193998 472.259043 946.469755 485.196482 942.834135 C489.207163 941.706937 492.406382 939.019437 492.330027 934.373319 C492.258493 930.022123 488.865793 928.702543 485.234140 927.902128 C476.226389 925.916776 467.138804 924.223661 458.240061 921.830472 C445.844553 918.496854 434.139292 913.689603 428.445200 900.868802 C420.716196 883.466459 427.501413 860.403226 446.048594 850.972806 C461.503794 843.114408 477.357859 844.175565 492.801706 851.062406 C497.006235 852.937162 499.313547 853.805936 501.971445 849.059598 C504.476511 844.586332 513.767160 843.835477 519.839731 846.843290 C525.186228 849.491361 525.946238 853.221097 524.851755 860.175565 C523.873911 866.389554 524.204355 872.866239 524.464914 879.206205 C524.958750 891.224149 515.008677 894.352811 506.644907 892.151273 C501.173166 890.710966 497.742685 887.340360 494.753305 883.544950 C487.965342 874.926664 479.717051 871.394926 469.584482 873.920560 C465.421274 874.958158 462.526194 878.229764 462.742441 881.930936 C462.905771 884.725370 465.603769 888.251737 468.170359 889.801908 C471.356394 891.726224 475.520090 892.403104 479.348948 892.824003 C492.186106 894.235258 504.820200 896.407621 516.683054 901.729032 C526.664804 906.206449 530.904551 914.998319 532.302317 925.034696 C535.522104 948.153348 521.417368 963.470731 501.422922 969.852079 C486.884958 974.492094 472.449839 973.702909 458.463083 967.410062 C455.926218 966.268705 453.370005 964.914579 451.260263 963.138822 C447.965952 960.366117 446.593760 962.566678 445.442637 965.051298 C443.192209 969.908842 437.160532 973.382474 431.589853 971.789091 C425.018930 969.909574 421.550058 967.900541 421.441294 960.751981 C421.290781 950.864164 421.299753 940.970243 421.493906 931.084012 C421.531321 929.179838 422.736887 927.298612 423.653513 925.156888 z"/><path class="selected"  fill="#000000" opacity="1.000000" stroke="none" 
 	d="
M400.653513 954.156888 C394.799631 962.621366 386.550913 966.932645 377.421763 969.898954 C362.789560 974.653715 348.466562 973.322416 334.469126 967.404813 C331.914988 966.324979 329.537119 964.751737 327.231272 963.180936 C324.369333 961.231351 322.836618 962.224637 321.357859 964.996122 C318.375803 970.584989 312.125315 973.406766 306.682871 971.644926 C300.162973 969.534208 297.061289 965.511625 297.330698 958.779081 C297.647471 950.862211 297.939035 943.022611 296.684031 934.993070 C295.254587 925.847440 305.281626 919.112333 314.462900 921.315214 C320.111643 922.670682 323.289255 926.229276 326.658152 930.485013 C334.847361 940.830472 345.732187 946.041288 358.963388 943.629789 C362.428415 942.998319 365.467905 939.159696 368.264109 936.356229 C368.945810 935.672758 368.389292 932.919218 367.551401 931.704008 C364.459482 927.219999 359.220591 927.058866 354.521372 925.914701 C344.832712 923.555448 334.872568 921.988309 325.502817 918.722074 C313.121592 914.405912 304.147165 906.707792 302.254709 892.229276 C299.199961 868.858427 312.607737 851.197538 333.838083 846.923734 C346.243052 844.426664 358.231516 845.577787 369.556467 851.567167 C372.906565 853.338773 375.266001 853.774930 377.617258 849.460111 C380.505869 844.158964 395.634226 842.535062 399.930491 850.013822 C400.443918 850.907499 400.380747 852.199735 400.384836 853.308134 C400.418039 862.303617 400.441477 871.299344 400.392710 880.294706 C400.344431 889.192777 392.351999 895.173612 383.775339 892.772977 C378.003672 891.157255 373.875681 887.556791 370.316904 882.731595 C364.939096 875.440092 355.044748 870.402250 344.674570 874.269071 C341.208017 875.561552 338.252695 878.214139 338.461008 882.495267 C338.663706 886.660795 344.204172 891.027128 349.286997 891.946805 C361.502878 894.157133 373.795603 896.103544 385.846506 899.025785 C400.973825 902.693876 408.439341 914.907499 408.507883 929.522367 C408.550486 938.607938 407.030527 946.894437 400.653513 954.156888 z"/><path class="selected"  fill="#000000" opacity="1.000000" stroke="none" 
 	d="
M564.403513 883.906888 C562.072580 879.316190 558.152292 879.863309 554.355173 879.891263 C547.040842 879.944974 546.359201 879.750150 544.359385 872.256010 C541.534250 861.668851 543.679941 851.871244 553.022043 848.823026 C554.504465 848.339261 556.098703 847.957670 557.644236 847.946561 C568.141794 847.870756 578.640207 847.906888 589.138315 847.906888 C592.028269 847.906888 594.937815 848.121732 597.803904 847.860258 C603.144602 847.373075 604.222300 851.343412 604.275156 854.861722 C604.550486 873.187650 604.403513 891.519803 604.403513 909.849882 C604.403513 919.129178 604.319529 928.409574 604.445566 937.687162 C604.494761 941.309354 607.740183 942.904813 612.075693 941.734647 C619.763804 939.659452 625.438791 943.706449 625.352488 951.453641 C625.305796 955.651273 625.294992 959.986112 624.267405 964.002958 C622.868784 969.470243 617.935190 970.957792 613.056833 970.802518 C602.990488 970.482328 592.945505 969.109281 582.886667 969.052030 C574.668406 969.005277 566.452036 970.414701 558.217295 970.845365 C552.714060 971.133329 547.474375 969.839750 545.192392 964.093656 C542.514353 957.350370 541.998606 950.476102 546.654734 944.190580 C549.332895 940.575223 553.205027 940.213529 557.157358 941.216459 C563.729746 942.884427 565.403147 941.723783 565.403391 934.984159 C565.403879 921.153348 565.461618 907.321927 565.358042 893.491971 C565.335398 890.461454 564.736826 887.435087 564.403513 883.906888 z"/><path class="selected"  fill="#000000" opacity="1.000000" stroke="none" 
 	d="
M1620.403513 825.906888 C1624.432077 826.240140 1627.979807 826.448270 1631.477488 826.983182 C1632.524607 827.143339 1633.432077 828.216459 1634.403513 828.871244 C1633.289255 829.549833 1632.163401 830.824491 1631.062449 830.803373 C1626.362619 830.713285 1621.671091 830.001371 1616.974436 829.979764 C1612.947458 829.961332 1608.922434 830.760404 1604.888010 830.863798 C1598.558909 831.026151 1592.214792 830.705228 1585.890818 830.948148 C1571.995310 831.481840 1558.105784 832.191312 1544.218821 832.922269 C1532.991037 833.513212 1521.775339 834.345853 1510.545359 834.881620 C1494.493113 835.647367 1478.431589 836.220975 1462.375803 836.916288 C1456.011423 837.191923 1449.647776 837.513700 1443.291452 837.933011 C1440.258005 838.132841 1439.264841 836.904081 1439.349070 833.912870 C1439.527414 827.584745 1439.362009 821.247465 1439.418284 814.914701 C1439.454416 810.854520 1441.479441 809.454862 1445.536448 809.860746 C1453.744700 810.682035 1461.994944 811.091093 1470.199411 811.942899 C1481.661936 813.133207 1493.090281 814.649808 1504.549021 815.879911 C1512.090769 816.689603 1519.667429 817.169584 1527.215891 817.922635 C1540.002634 819.198514 1552.776438 820.602811 1565.561472 821.895536 C1572.778879 822.625272 1579.999338 823.362089 1587.233835 823.878324 C1598.116648 824.654569 1609.012888 825.240262 1620.403513 825.906888 z"/><path class="selected"  fill="#000000" opacity="1.000000" stroke="none" 
 	d="
M557.153513 812.156888 C553.795237 802.463651 556.030100 794.562406 562.568857 786.998807 C569.163828 779.370511 586.852304 778.824491 594.115976 784.294218 C604.080698 791.798002 607.362680 801.313627 602.507090 813.106107 C597.339426 825.656522 585.312754 828.493070 574.699045 826.572904 C566.577951 825.103788 560.513987 820.370023 557.153513 812.156888 z"/></svg>